<?xml version="1.0" encoding="utf-8"?>
<svg viewBox="0 0 500 500" xmlns="http://www.w3.org/2000/svg">
  <path d="M 479.577 468.014 L 479.577 118.014 C 479.46 117.041 479.265 116.081 478.999 115.135 C 478.893 114.838 478.772 114.545 478.632 114.26 C 478.292 113.573 477.862 112.936 477.354 112.362 C 477.179 112.159 476.776 111.627 476.714 111.573 L 380.464 24.073 L 380.468 24.073 C 379.772 23.46 378.987 22.956 378.14 22.588 C 377.929 22.502 377.71 22.467 377.491 22.385 C 376.538 22.1 375.561 21.893 374.577 21.764 L 33.327 21.764 C 28.495 21.764 24.577 25.682 24.577 30.514 L 24.577 468.014 C 24.577 470.334 25.499 472.561 27.14 474.202 C 28.78 475.842 31.007 476.764 33.327 476.764 L 470.827 476.764 C 473.147 476.764 475.374 475.842 477.015 474.202 C 478.655 472.561 479.577 470.334 479.577 468.014 Z M 383.327 50.304 L 448.19 109.269 L 383.327 109.269 Z M 462.077 459.264 L 42.077 459.264 L 42.077 39.264 L 365.827 39.264 L 365.827 118.014 C 365.827 120.334 366.749 122.561 368.39 124.202 C 370.03 125.842 372.257 126.764 374.577 126.764 L 462.077 126.764 Z"/>
  <path d="M 189.995 200.332 L 137.495 200.332 C 132.663 200.332 128.745 204.25 128.745 209.082 L 128.745 296.582 C 128.745 301.414 132.663 305.332 137.495 305.332 C 142.327 305.332 146.245 301.414 146.245 296.582 L 146.245 265.203 L 183.807 302.765 L 183.807 302.769 C 187.241 306.085 192.698 306.035 196.073 302.66 C 199.448 299.285 199.499 293.828 196.182 290.394 L 167.366 261.582 L 189.995 261.582 C 192.316 261.582 194.542 260.66 196.183 259.019 C 197.823 257.379 198.745 255.152 198.745 252.832 L 198.745 209.082 C 198.745 206.761 197.824 204.535 196.183 202.894 C 194.542 201.254 192.316 200.332 189.995 200.332 Z M 181.245 244.082 L 146.245 244.082 L 146.245 217.832 L 181.245 217.832 Z"/>
  <path d="M 277.495 200.332 L 224.995 200.332 C 220.163 200.332 216.245 204.25 216.245 209.082 L 216.245 296.582 C 216.245 301.414 220.163 305.332 224.995 305.332 C 229.827 305.332 233.745 301.414 233.745 296.582 L 233.745 261.582 L 268.745 261.582 L 268.745 296.582 C 268.745 301.414 272.663 305.332 277.495 305.332 C 282.327 305.332 286.245 301.414 286.245 296.582 L 286.245 209.082 C 286.245 206.762 285.323 204.535 283.683 202.895 C 282.042 201.254 279.815 200.332 277.495 200.332 Z M 268.745 244.082 L 233.745 244.082 L 233.745 217.832 L 268.745 217.832 Z"/>
  <path d="M 355.915 232.932 C 354.845 229.17 351.411 226.573 347.497 226.573 C 343.583 226.573 340.149 229.17 339.079 232.932 L 331.501 259.471 L 321.071 207.33 C 320.688 204.99 319.368 202.904 317.415 201.553 C 315.466 200.205 313.048 199.705 310.723 200.17 C 308.395 200.635 306.356 202.026 305.075 204.022 C 303.794 206.018 303.376 208.451 303.923 210.76 L 321.423 298.26 C 322.223 302.209 325.622 305.1 329.645 305.26 L 329.997 305.26 C 333.907 305.26 337.345 302.666 338.415 298.908 L 347.497 267.181 L 356.579 298.978 C 357.645 302.717 361.048 305.303 364.934 305.33 L 364.997 305.33 C 368.864 305.33 372.27 302.795 373.38 299.092 L 399.63 211.592 C 401.016 206.963 398.387 202.084 393.759 200.697 C 389.13 199.31 384.251 201.939 382.864 206.568 L 365.196 265.439 Z"/>
</svg>