<svg id="_x31_px" enable-background="new 0 0 24 24" height="512" viewBox="0 0 24 24" width="512" xmlns="http://www.w3.org/2000/svg"><path d="m12 20c-.068 0-.136-.014-.199-.042l-11.5-5c-.183-.079-.301-.259-.301-.458s.118-.379.301-.458l5.76-2.5c.253-.111.548.006.658.259s-.006.548-.259.658l-4.705 2.041 10.245 4.455 10.245-4.455-4.704-2.042c-.253-.11-.37-.404-.259-.658.109-.253.402-.371.658-.259l5.76 2.5c.182.08.3.26.3.459s-.118.379-.301.458l-11.5 5c-.063.028-.131.042-.199.042z"/><path d="m12 24c-.068 0-.136-.014-.199-.042l-11.5-5c-.183-.079-.301-.259-.301-.458v-4c0-.276.224-.5.5-.5s.5.224.5.5v3.672l11 4.782 11-4.782v-3.672c0-.276.224-.5.5-.5s.5.224.5.5v4c0 .199-.118.379-.301.458l-11.5 5c-.063.028-.131.042-.199.042z"/><path d="m12 24c-.276 0-.5-.224-.5-.5v-4c0-.276.224-.5.5-.5s.5.224.5.5v4c0 .276-.224.5-.5.5z"/><path d="m12 14c-.128 0-.256-.049-.354-.146l-5.5-5.5c-.143-.144-.186-.358-.108-.545.077-.187.26-.309.462-.309h3v-6.5c0-.551.449-1 1-1h3c.551 0 1 .449 1 1v6.5h3c.202 0 .385.122.462.309.078.187.035.402-.108.545l-5.5 5.5c-.098.097-.226.146-.354.146zm-4.293-5.5 4.293 4.293 4.293-4.293h-2.293c-.276 0-.5-.224-.5-.5v-7h-3v7c0 .276-.224.5-.5.5z"/></svg>