<?xml version="1.0" standalone="no"?>
<!DOCTYPE svg PUBLIC "-//W3C//DTD SVG 20010904//EN"
 "http://www.w3.org/TR/2001/REC-SVG-20010904/DTD/svg10.dtd">
<svg version="1.0" xmlns="http://www.w3.org/2000/svg"
 width="980.000000pt" height="978.000000pt" viewBox="0 0 980.000000 978.000000"
 preserveAspectRatio="xMidYMid meet">

<g transform="translate(0.000000,978.000000) scale(0.100000,-0.100000)"
fill="#000000" stroke="none">
<path d="M2258 7311 c-110 -43 -220 -146 -279 -261 l-23 -45 -4 -2003 -4
-2002 23 -58 c12 -31 35 -75 50 -97 43 -64 140 -150 207 -184 l61 -31 2602 0
2602 0 66 32 c81 40 194 149 239 230 l32 58 0 1726 0 1726 -36 69 c-42 79
-141 179 -219 220 l-50 26 -1025 7 c-564 3 -1370 6 -1791 6 l-767 0 -37 73
c-126 241 -303 460 -410 508 -37 17 -80 19 -615 18 -535 0 -578 -1 -622 -18z
m1229 -343 c22 -35 82 -144 133 -243 125 -242 136 -258 185 -267 22 -4 816
-12 1765 -17 949 -6 1770 -13 1825 -17 67 -4 106 -11 117 -21 22 -20 26 -56
32 -320 l6 -223 -2657 0 -2656 0 6 543 c3 383 8 551 17 574 7 19 22 36 38 42
16 6 249 10 587 10 l561 1 41 -62z m3076 -1405 l977 -6 0 -1270 c0 -1268 0
-1271 -21 -1314 l-21 -43 -2603 0 -2603 0 -18 28 c-17 24 -19 59 -25 322 -4
162 -8 737 -8 1277 -1 775 2 984 12 990 6 4 95 10 197 13 286 9 3023 11 4113
3z"/>
<path d="M3940 5151 c-47 -5 -113 -11 -147 -16 l-63 -7 0 -764 0 -764 175 0
175 0 0 305 0 305 78 0 c131 0 190 -29 231 -113 11 -23 43 -128 70 -232 27
-105 57 -207 65 -227 l16 -38 180 0 c171 0 180 1 171 18 -5 10 -37 117 -70
238 -33 121 -69 245 -81 275 -27 73 -81 143 -130 171 -22 13 -40 25 -40 29 0
3 20 15 45 27 145 70 235 233 221 399 -16 200 -144 331 -366 379 -86 18 -395
27 -530 15z m431 -274 c49 -22 95 -69 109 -113 19 -55 9 -154 -19 -192 -55
-78 -144 -112 -293 -112 l-88 0 0 214 c0 251 -17 226 150 221 68 -1 118 -8
141 -18z"/>
<path d="M5451 4725 c-106 -24 -186 -67 -260 -142 -112 -112 -171 -262 -171
-438 0 -395 288 -611 740 -556 99 12 247 47 255 61 3 5 -5 58 -16 120 -22 112
-22 112 -48 106 -120 -28 -205 -38 -296 -33 -114 6 -175 24 -229 69 -35 29
-75 95 -76 126 0 9 78 12 359 12 318 0 360 2 365 16 9 24 7 206 -3 260 -36
186 -144 325 -299 381 -85 31 -228 39 -321 18z m172 -226 c74 -20 137 -106
137 -186 l0 -23 -205 0 c-227 0 -216 -4 -191 68 22 62 55 99 110 127 54 27 90
31 149 14z"/>
</g>
</svg>
