<?xml version="1.0" encoding="iso-8859-1"?>
<!-- Generator: Adobe Illustrator 16.0.0, SVG Export Plug-In . SVG Version: 6.00 Build 0)  -->
<!DOCTYPE svg PUBLIC "-//W3C//DTD SVG 1.1//EN" "http://www.w3.org/Graphics/SVG/1.1/DTD/svg11.dtd">
<svg version="1.1" id="Capa_1" xmlns="http://www.w3.org/2000/svg" xmlns:xlink="http://www.w3.org/1999/xlink" x="0px" y="0px"
	 width="56.356px" height="56.356px" viewBox="0 0 56.356 56.356" style="enable-background:new 0 0 56.356 56.356;"
	 xml:space="preserve">
<g>
	<path d="M56.356,45.455V10.417h-3.221V5.062l-24.956,5.33L3.221,5.062v5.356H0v35.037h23.507v3.504h-4.671v2.336h18.688v-2.336
		h-4.672v-3.504H56.356z M5.561,10.417V7.948l7.641,1.631v0.836v2.336v9.127H8.091l8.202,9.092l8.201-9.092H19.38v-9.127v-1.854
		l7.641,1.63v0.225V42.84L5.568,38.26V12.753V10.42H5.561V10.417z M50.806,7.951v2.469v2.335v25.51l-21.454,4.58v-30.09v-0.225
		l9.887-2.111L50.806,7.951z M32.907,20.062l-0.734-2.216l15.384-5.081l0.734,2.217L32.907,20.062z M32.907,26.327l-0.734-2.217
		l15.384-5.08l0.734,2.217L32.907,26.327z M32.907,32.587l-0.734-2.215l15.374-5.08l0.734,2.216L32.907,32.587z M32.907,38.846
		l-0.734-2.215l15.374-5.082l0.734,2.217L32.907,38.846z"/>
</g>
<g>
</g>
<g>
</g>
<g>
</g>
<g>
</g>
<g>
</g>
<g>
</g>
<g>
</g>
<g>
</g>
<g>
</g>
<g>
</g>
<g>
</g>
<g>
</g>
<g>
</g>
<g>
</g>
<g>
</g>
</svg>
