<?xml version="1.0" encoding="iso-8859-1"?>
<!-- Generator: Adobe Illustrator 19.0.0, SVG Export Plug-In . SVG Version: 6.00 Build 0)  -->
<svg version="1.1" id="Capa_1" xmlns="http://www.w3.org/2000/svg" xmlns:xlink="http://www.w3.org/1999/xlink" x="0px" y="0px"
	 viewBox="0 0 48 48" style="enable-background:new 0 0 48 48;" xml:space="preserve">
<g>
	<g>
		<path d="M47.987,21.938c-0.006-0.091-0.023-0.178-0.053-0.264c-0.011-0.032-0.019-0.063-0.033-0.094
			c-0.048-0.104-0.109-0.202-0.193-0.285c-0.001-0.001-0.001-0.001-0.001-0.001L42,15.586V10c0-0.022-0.011-0.041-0.013-0.063
			c-0.006-0.088-0.023-0.173-0.051-0.257c-0.011-0.032-0.019-0.063-0.034-0.094c-0.049-0.106-0.11-0.207-0.196-0.293l-9-9
			c-0.086-0.086-0.187-0.147-0.294-0.196c-0.03-0.014-0.06-0.022-0.091-0.033c-0.085-0.029-0.172-0.047-0.262-0.052
			C32.039,0.01,32.021,0,32,0H7C6.448,0,6,0.448,6,1v14.586l-5.707,5.707c0,0-0.001,0.001-0.002,0.002
			c-0.084,0.084-0.144,0.182-0.192,0.285c-0.014,0.031-0.022,0.062-0.033,0.094c-0.03,0.086-0.048,0.173-0.053,0.264
			C0.011,21.96,0,21.978,0,22v19c0,0.552,0.448,1,1,1h5v5c0,0.552,0.448,1,1,1h34c0.552,0,1-0.448,1-1v-5h5c0.552,0,1-0.448,1-1V22
			C48,21.978,47.989,21.96,47.987,21.938z M44.586,21H42v-2.586L44.586,21z M38.586,9H33V3.414L38.586,9z M8,2h23v8
			c0,0.552,0.448,1,1,1h8v5v5H8v-5V2z M6,18.414V21H3.414L6,18.414z M40,46H8v-4h32V46z M46,40H2V23h5h34h5V40z"/>
		<polygon points="28.93,34.77 28.862,34.77 26.55,25.964 23.813,25.964 23.813,38 25.666,38 25.632,28.752 25.683,28.752 
			28.046,38 29.644,38 32.058,28.752 32.109,28.752 32.075,38 34.064,38 34.064,25.964 31.191,25.964 		"/>
		<polygon points="16.095,27.698 18.356,27.698 18.356,38 20.362,38 20.362,27.698 22.623,27.698 22.623,25.964 16.095,25.964 		"/>
		<polygon points="12.882,30.843 9.278,30.843 9.278,25.964 7.255,25.964 7.255,38 9.278,38 9.278,32.662 12.882,32.662 12.882,38 
			14.905,38 14.905,25.964 12.882,25.964 		"/>
		<polygon points="38.552,25.964 36.495,25.964 36.495,38 41.867,38 41.867,36.113 38.552,36.113 		"/>
	</g>
</g>
<g>
</g>
<g>
</g>
<g>
</g>
<g>
</g>
<g>
</g>
<g>
</g>
<g>
</g>
<g>
</g>
<g>
</g>
<g>
</g>
<g>
</g>
<g>
</g>
<g>
</g>
<g>
</g>
<g>
</g>
</svg>
