<?xml version="1.0" encoding="iso-8859-1"?>
<!-- Generator: Adobe Illustrator 19.0.0, SVG Export Plug-In . SVG Version: 6.00 Build 0)  -->
<svg version="1.1" id="Layer_1" xmlns="http://www.w3.org/2000/svg" xmlns:xlink="http://www.w3.org/1999/xlink" x="0px" y="0px"
	 viewBox="0 0 480.001 480.001" style="enable-background:new 0 0 480.001 480.001;" xml:space="preserve">
<g>
	<g>
		<g>
			<path d="M346.621,340.088L73.182,101.178c-3.083-2.693-7.494-3.235-11.137-1.371c-3.643,1.866-5.782,5.762-5.398,9.837
				l33.961,361.292c0.39,4.149,3.313,7.622,7.334,8.714c0.87,0.236,1.75,0.351,2.622,0.351c3.163,0,6.204-1.504,8.114-4.155
				l82.857-115.013l148.724-3.216c4.127-0.089,7.775-2.705,9.184-6.585C350.85,347.151,349.729,342.804,346.621,340.088z
				 M186.118,340.945c-3.138,0.068-6.063,1.605-7.898,4.152l-70.195,97.436l-29.12-309.796l235.134,205.441L186.118,340.945z"/>
			<path d="M267.858,51.76c2.219,0,4.452-0.735,6.307-2.245l22.59-18.386v69.762c0,5.523,4.477,10,10,10s10-4.477,10-10v-69.88
				l22.583,18.486c4.275,3.499,10.575,2.869,14.072-1.403c3.499-4.274,2.87-10.574-1.403-14.072l-38.798-31.76
				c-3.676-3.01-8.962-3.017-12.647-0.018l-39.022,31.76c-4.283,3.486-4.93,9.785-1.443,14.068
				C262.073,50.501,264.953,51.76,267.858,51.76z"/>
			<path d="M339.405,183.728l-22.65,18.434v-73.448c0-5.523-4.477-10-10-10s-10,4.477-10,10v73.449l-22.51-18.418
				c-4.275-3.497-10.575-2.868-14.072,1.407c-3.498,4.274-2.868,10.575,1.407,14.072l38.797,31.745
				c1.842,1.507,4.087,2.261,6.332,2.261c2.237,0,4.474-0.748,6.312-2.244l39.007-31.746c4.284-3.486,4.93-9.784,1.444-14.068
				C349.986,180.888,343.687,180.243,339.405,183.728z"/>
			<path d="M224.177,161.834c1.977,2.426,4.855,3.684,7.758,3.684c2.221,0,4.455-0.736,6.311-2.248
				c4.281-3.489,4.924-9.788,1.436-14.069l-19.892-24.412h68.786c5.523,0,10-4.477,10-10s-4.477-10-10-10h-65.874l16.968-20.744
				c3.497-4.275,2.866-10.575-1.409-14.072c-4.275-3.497-10.576-2.867-14.072,1.409l-31.76,38.828
				c-3.008,3.678-3.014,8.965-0.012,12.648L224.177,161.834z"/>
			<path d="M421.152,110.389l-31.76-38.992c-3.489-4.283-9.787-4.925-14.069-1.438c-4.282,3.488-4.926,9.787-1.438,14.069
				l16.91,20.76h-67.33c-5.523,0-10,4.477-10,10c0,5.523,4.477,10,10,10h70.397L373.9,149.184
				c-3.497,4.274-2.868,10.575,1.406,14.072c1.858,1.521,4.1,2.261,6.327,2.261c2.896,0,5.768-1.252,7.745-3.667l31.76-38.813
				C424.147,119.361,424.153,114.073,421.152,110.389z"/>
		</g>
	</g>
</g>
<g>
</g>
<g>
</g>
<g>
</g>
<g>
</g>
<g>
</g>
<g>
</g>
<g>
</g>
<g>
</g>
<g>
</g>
<g>
</g>
<g>
</g>
<g>
</g>
<g>
</g>
<g>
</g>
<g>
</g>
</svg>
